<svg xmlns="http://www.w3.org/2000/svg" version="1.1" xmlns:xlink="http://www.w3.org/1999/xlink" xmlns:svgjs="http://svgjs.dev/svgjs" width="1000" height="1000"><style>
    #light-icon {
      display: inline;
    }
    #dark-icon {
      display: none;
    }

    @media (prefers-color-scheme: dark) {
      #light-icon {
        display: none;
      }
      #dark-icon {
        display: inline;
      }
    }
  </style><g id="light-icon"><svg xmlns="http://www.w3.org/2000/svg" version="1.1" xmlns:xlink="http://www.w3.org/1999/xlink" xmlns:svgjs="http://svgjs.dev/svgjs" width="1000" height="1000"><g><g transform="matrix(62.5,0,0,62.5,0,187.5)"><svg xmlns="http://www.w3.org/2000/svg" version="1.1" xmlns:xlink="http://www.w3.org/1999/xlink" xmlns:svgjs="http://svgjs.dev/svgjs" width="16" height="10"><svg width="16" height="10" viewBox="0 0 16 10" fill="none" xmlns="http://www.w3.org/2000/svg">
<path d="M5.076 9.12C4.172 9.12 3.384 8.94 2.712 8.58C2.04 8.212 1.52 7.712 1.152 7.08C0.792 6.448 0.612 5.728 0.612 4.92C0.612 4.312 0.72 3.74 0.936 3.204C1.16 2.668 1.476 2.196 1.884 1.788C2.3 1.38 2.796 1.06 3.372 0.827999C3.948 0.595999 4.588 0.48 5.292 0.48C5.932 0.48 6.48 0.548 6.936 0.684C7.392 0.819999 7.804 0.975999 8.172 1.152V2.76H7.68C7.552 2.28 7.28 1.884 6.864 1.572C6.448 1.26 5.86 1.104 5.1 1.104C4.404 1.104 3.812 1.256 3.324 1.56C2.836 1.856 2.464 2.268 2.208 2.796C1.952 3.316 1.824 3.92 1.824 4.608C1.824 5.096 1.896 5.572 2.04 6.036C2.192 6.5 2.412 6.92 2.7 7.296C2.988 7.664 3.348 7.956 3.78 8.172C4.212 8.388 4.712 8.496 5.28 8.496C5.664 8.496 6 8.448 6.288 8.352C6.576 8.248 6.824 8.06 7.032 7.788C7.24 7.508 7.412 7.108 7.548 6.588H8.052V8.496C7.484 8.72 6.952 8.88 6.456 8.976C5.96 9.072 5.5 9.12 5.076 9.12ZM15.6885 9.072C15.4565 9.056 15.1725 9.04 14.8365 9.024C14.5085 9.008 14.2165 9 13.9605 9H9.3285V8.52L9.5805 8.508C10.0045 8.492 10.2885 8.428 10.4325 8.316C10.5765 8.196 10.6485 7.992 10.6485 7.704V1.896C10.6485 1.6 10.5725 1.396 10.4205 1.284C10.2765 1.172 9.9965 1.108 9.5805 1.092L9.3285 1.08V0.599999H13.0965V1.08L12.8445 1.092C12.4285 1.108 12.1445 1.172 11.9925 1.284C11.8485 1.396 11.7765 1.6 11.7765 1.896V7.704C11.7765 7.952 11.8325 8.128 11.9445 8.232C12.0645 8.328 12.2445 8.384 12.4845 8.4C12.7325 8.408 13.0405 8.412 13.4085 8.412C13.8085 8.412 14.1405 8.36 14.4045 8.256C14.6765 8.144 14.9005 7.964 15.0765 7.716C15.2525 7.468 15.3925 7.132 15.4965 6.708H16.0005L15.6885 9.072Z" fill="#151515"></path>
</svg></svg></g></g></svg></g><g id="dark-icon"><svg xmlns="http://www.w3.org/2000/svg" version="1.1" xmlns:xlink="http://www.w3.org/1999/xlink" xmlns:svgjs="http://svgjs.dev/svgjs" width="1000" height="1000"><g><g transform="matrix(62.5,0,0,62.5,0,187.5)"><svg xmlns="http://www.w3.org/2000/svg" version="1.1" xmlns:xlink="http://www.w3.org/1999/xlink" xmlns:svgjs="http://svgjs.dev/svgjs" width="16" height="10"><svg width="16" height="10" viewBox="0 0 16 10" fill="none" xmlns="http://www.w3.org/2000/svg">
<path d="M5.076 9.12C4.172 9.12 3.384 8.94 2.712 8.58C2.04 8.212 1.52 7.712 1.152 7.08C0.792 6.448 0.612 5.728 0.612 4.92C0.612 4.312 0.72 3.74 0.936 3.204C1.16 2.668 1.476 2.196 1.884 1.788C2.3 1.38 2.796 1.06 3.372 0.827999C3.948 0.595999 4.588 0.48 5.292 0.48C5.932 0.48 6.48 0.548 6.936 0.684C7.392 0.819999 7.804 0.975999 8.172 1.152V2.76H7.68C7.552 2.28 7.28 1.884 6.864 1.572C6.448 1.26 5.86 1.104 5.1 1.104C4.404 1.104 3.812 1.256 3.324 1.56C2.836 1.856 2.464 2.268 2.208 2.796C1.952 3.316 1.824 3.92 1.824 4.608C1.824 5.096 1.896 5.572 2.04 6.036C2.192 6.5 2.412 6.92 2.7 7.296C2.988 7.664 3.348 7.956 3.78 8.172C4.212 8.388 4.712 8.496 5.28 8.496C5.664 8.496 6 8.448 6.288 8.352C6.576 8.248 6.824 8.06 7.032 7.788C7.24 7.508 7.412 7.108 7.548 6.588H8.052V8.496C7.484 8.72 6.952 8.88 6.456 8.976C5.96 9.072 5.5 9.12 5.076 9.12ZM15.6885 9.072C15.4565 9.056 15.1725 9.04 14.8365 9.024C14.5085 9.008 14.2165 9 13.9605 9H9.3285V8.52L9.5805 8.508C10.0045 8.492 10.2885 8.428 10.4325 8.316C10.5765 8.196 10.6485 7.992 10.6485 7.704V1.896C10.6485 1.6 10.5725 1.396 10.4205 1.284C10.2765 1.172 9.9965 1.108 9.5805 1.092L9.3285 1.08V0.599999H13.0965V1.08L12.8445 1.092C12.4285 1.108 12.1445 1.172 11.9925 1.284C11.8485 1.396 11.7765 1.6 11.7765 1.896V7.704C11.7765 7.952 11.8325 8.128 11.9445 8.232C12.0645 8.328 12.2445 8.384 12.4845 8.4C12.7325 8.408 13.0405 8.412 13.4085 8.412C13.8085 8.412 14.1405 8.36 14.4045 8.256C14.6765 8.144 14.9005 7.964 15.0765 7.716C15.2525 7.468 15.3925 7.132 15.4965 6.708H16.0005L15.6885 9.072Z" fill="#DDDDDD"></path>
</svg></svg></g></g></svg></g></svg>